<svg width="512" xmlns="http://www.w3.org/2000/svg" height="512" id="screenshot-c9ebcf53-903a-80df-8006-652df4e341d3" viewBox="0 0 512 512" xmlns:xlink="http://www.w3.org/1999/xlink" fill="none" version="1.1"><g id="shape-c9ebcf53-903a-80df-8006-652df4e341d3"><defs><clipPath id="frame-clip-c9ebcf53-903a-80df-8006-652df4e341d3-render-1" class="frame-clip frame-clip-def"><rect rx="0" ry="0" x="0" y="0" width="512" height="512.0000000000001" transform="matrix(1.000000, 0.000000, 0.000000, 1.000000, 0.000000, 0.000000)"/></clipPath></defs><g class="frame-container-wrapper"><g class="frame-container-blur"><g class="frame-container-shadows"><g clip-path="url(#frame-clip-c9ebcf53-903a-80df-8006-652df4e341d3-render-1)" fill="none"><g class="fills" id="fills-c9ebcf53-903a-80df-8006-652df4e341d3"><rect rx="0" ry="0" x="0" y="0" width="512" height="512.0000000000001" transform="matrix(1.000000, 0.000000, 0.000000, 1.000000, 0.000000, 0.000000)" class="frame-background"/></g><g class="frame-children"><g id="shape-acf7de1e-56d5-80b8-8006-652e563ec25f"><g class="fills" id="fills-acf7de1e-56d5-80b8-8006-652e563ec25f"><ellipse cx="256" cy="256" rx="240" ry="239.99999999999997" transform="matrix(1.000000, 0.000000, 0.000000, 1.000000, 0.000000, 0.000000)" style="fill: rgb(0, 0, 0); fill-opacity: 1;"/></g></g><g id="shape-acf7de1e-56d5-80b8-8006-652e2d5f4926" version="1.2" baseProfile="tiny" xml:space="preserve" rx="0" ry="0" style="fill: rgb(0, 0, 0);"><g id="shape-acf7de1e-56d5-80b8-8006-652e2d60aa18" style="display: none;"><g class="fills" id="fills-acf7de1e-56d5-80b8-8006-652e2d60aa18"><rect width="415.9999999999999" height="416" x="48.000000000000085" transform="matrix(1.000000, 0.000000, 0.000000, 1.000000, 0.000000, 0.000000)" style="fill: rgb(255, 255, 255); fill-opacity: 1;" ry="0" fill="none" rx="0" y="48.00000000000003"/></g></g><g id="shape-acf7de1e-56d5-80b8-8006-652e2d61c448"><g class="fills" id="fills-acf7de1e-56d5-80b8-8006-652e2d61c448"><path d="M394.690185546875,163.003173828125C393.44219970703125,162.562255859375,391.9820556640625,162.00482177734375,390.642578125,161.4681396484375C389.71490478515625,158.2109375,387.9842834472656,153.763916015625,384.972412109375,147.49887084960938C383.8907470703125,145.24838256835938,382.0397033691406,143.463623046875,379.74761962890625,142.46939086914062C377.7298583984375,141.58755493164062,359.8002624511719,133.81661987304688,352.5993347167969,131.64511108398438C344.6620178222656,129.25723266601562,322.2271728515625,126.39938354492188,319.6979675292969,126.08316040039062C317.2061462402344,125.78367614746094,314.7100830078125,126.35772705078125,312.63427734375,127.74728393554688L299.6549987792969,136.40005493164062L212.34909057617188,136.40005493164062L199.36984252929688,127.74728393554688C197.2940673828125,126.35772705078125,194.79385375976562,125.77528381347656,192.3062744140625,126.08316040039062C189.7769775390625,126.39938354492188,167.34210205078125,129.25723266601562,159.40066528320312,131.64511108398438C152.20797729492188,133.81240844726562,134.27432250976562,141.58755493164062,132.256591796875,142.46527099609375C129.96865844726562,143.463623046875,128.11328125,145.24838256835938,127.03158569335938,147.49887084960938C124.01573181152344,153.76797485351562,122.28512573242188,158.2109375,121.36164855957031,161.4681396484375C120.07611083984375,161.98397827148438,118.64511108398438,162.53317260742188,117.31385803222656,163.00735473632812C114.44346618652344,164.03070068359375,112.16386413574219,166.26046752929688,111.08224487304688,169.110107421875C106.39384460449219,181.4444580078125,65.42623901367188,290.72760009765625,69.04132080078125,328.58367919921875C72.58563232421875,365.7242431640625,85.79774475097656,376.4320068359375,112.263671875,385.1971435546875C115.84135437011719,386.37860107421875,119.7890625,385.538330078125,122.56387329101562,382.99237060546875L187.2518310546875,323.67486572265625L324.7606201171875,323.67486572265625L389.4486083984375,382.99237060546875C392.1943359375,385.5091552734375,396.217041015625,386.36187744140625,399.748779296875,385.1971435546875C426.210693359375,376.4320068359375,439.4268798828125,365.719970703125,442.97113037109375,328.58367919921875C446.58203125,290.7234802246094,405.61859130859375,181.4444580078125,400.9344482421875,169.10589599609375C399.84027099609375,166.26046752929688,397.56060791015625,164.0264892578125,394.690185546875,163.003173828125C393.44219970703125,162.55804443359375,397.56060791015625,164.0264892578125,394.690185546875,163.003173828125ZM422.2586669921875,326.61181640625C419.7916259765625,352.44537353515625,413.4434814453125,358.1820068359375,398.9375,363.48187255859375L335.8304443359375,305.61212158203125C333.91265869140625,303.85247802734375,331.4083557128906,302.87908935546875,328.8042297363281,302.87908935546875L183.20416259765625,302.87908935546875C180.5999755859375,302.87908935546875,178.09152221679688,303.85247802734375,176.17803955078125,305.61212158203125L113.07072448730469,363.48187255859375C98.56480407714844,358.1820068359375,92.21244812011719,352.44537353515625,89.74981689453125,326.61181640625C87.19549560546875,299.8255615234375,115.67906188964844,216.32192993164062,128.862060546875,180.9327392578125C136.03811645507812,178.17889404296875,141.5916748046875,175.0506591796875,141.79974365234375,168.157470703125C141.820556640625,167.49600219726562,141.774658203125,166.83456420898438,141.66650390625,166.18560791015625C142.20318603515625,164.63809204101562,143.13095092773438,162.354248046875,144.17919921875,159.97470092773438C150.69375610351562,157.19577026367188,161.2186279296875,152.8194580078125,165.4034423828125,151.55905151367188C169.50534057617188,150.32345581054688,182.03094482421875,148.426513671875,191.0791015625,147.216064453125L203.4383544921875,155.4527587890625C205.1439208984375,156.58847045898438,207.15750122070312,157.199951171875,209.2083740234375,157.199951171875L302.808349609375,157.199951171875C304.8591613769531,157.199951171875,306.8726806640625,156.59268188476562,308.5782470703125,155.4527587890625L320.9375305175781,147.216064453125C329.9856262207031,148.426513671875,342.5113525390625,150.32345581054688,346.6090087890625,151.55905151367188C350.7938537597656,152.8194580078125,361.3145751953125,157.191650390625,367.833251953125,159.97470092773438C368.84417724609375,162.26275634765625,369.801025390625,164.5924072265625,370.35003662109375,166.18560791015625C370.241943359375,166.83041381835938,370.1961669921875,167.4918212890625,370.2168884277344,168.157470703125C370.42913818359375,175.0506591796875,375.9827575683594,178.17889404296875,383.1587829589844,180.9327392578125C396.3292236328125,216.3177490234375,424.81292724609375,299.8089599609375,422.2586669921875,326.61181640625Z" style="fill: rgb(255, 255, 255); fill-opacity: 1;"/></g></g><g id="shape-acf7de1e-56d5-80b8-8006-652e2d6225cf"><g class="fills" id="fills-acf7de1e-56d5-80b8-8006-652e2d6225cf"><path d="M198.80001831054688,209.19998168945312C198.80001831054688,191.9942626953125,184.80569458007812,178,167.60000610351562,178C150.39431762695312,178,136.40008544921875,191.9942626953125,136.40008544921875,209.19998168945312C136.40008544921875,226.40570068359375,150.39431762695312,240.4000244140625,167.60000610351562,240.4000244140625C184.80569458007812,240.4000244140625,198.80001831054688,226.40570068359375,198.80001831054688,209.19998168945312ZM167.60000610351562,219.5999755859375C161.86334228515625,219.5999755859375,157.19998168945312,214.93658447265625,157.19998168945312,209.19998168945312C157.19998168945312,203.46340942382812,161.86334228515625,198.80001831054688,167.60000610351562,198.80001831054688C173.33663940429688,198.80001831054688,178,203.46340942382812,178,209.19998168945312C178,214.93658447265625,173.33663940429688,219.5999755859375,167.60000610351562,219.5999755859375Z" style="fill: rgb(255, 255, 255); fill-opacity: 1;"/></g></g><g id="shape-acf7de1e-56d5-80b8-8006-652e2d627047"><g class="fills" id="fills-acf7de1e-56d5-80b8-8006-652e2d627047"><path d="M230.08734130859375,250.80001831054688L219.5999755859375,250.80001831054688L219.5999755859375,240.4000244140625C219.5999755859375,234.65499877929688,214.94500732421875,230,209.19998168945312,230C203.45501708984375,230,198.80001831054688,234.65499877929688,198.80001831054688,240.4000244140625L198.80001831054688,250.80001831054688L188.4000244140625,250.80001831054688C182.65499877929688,250.80001831054688,178,255.45501708984375,178,261.1999816894531C178,266.94500732421875,182.65499877929688,271.5999755859375,188.4000244140625,271.5999755859375L198.80001831054688,271.5999755859375L198.80001831054688,282C198.80001831054688,287.74505615234375,203.45501708984375,292.4000244140625,209.19998168945312,292.4000244140625C214.94500732421875,292.4000244140625,219.5999755859375,287.74505615234375,219.5999755859375,282L219.5999755859375,271.5999755859375L230.08734130859375,271.5999755859375C235.83236694335938,271.5999755859375,240.48733520507812,266.94500732421875,240.48733520507812,261.1999816894531C240.48733520507812,255.45501708984375,235.83236694335938,250.80001831054688,230.08734130859375,250.80001831054688Z" style="fill: rgb(255, 255, 255); fill-opacity: 1;"/></g></g><g id="shape-acf7de1e-56d5-80b8-8006-652e2d629174"><g class="fills" id="fills-acf7de1e-56d5-80b8-8006-652e2d629174"><ellipse cx="370.39999999999986" cy="209.63263999999992" rx="10.399999999999835" ry="10.399999999999977" transform="matrix(1.000000, 0.000000, 0.000000, 1.000000, 0.000000, 0.000000)" style="fill: rgb(255, 255, 255); fill-opacity: 1;"/></g></g><g id="shape-acf7de1e-56d5-80b8-8006-652e2d62e1a3"><g class="fills" id="fills-acf7de1e-56d5-80b8-8006-652e2d62e1a3"><ellipse cx="240.39999999999995" cy="214.40000000000003" rx="10.399999999999949" ry="10.400000000000034" transform="matrix(1.000000, 0.000000, 0.000000, 1.000000, 0.000000, 0.000000)" style="fill: rgb(255, 255, 255); fill-opacity: 1;"/></g></g><g id="shape-acf7de1e-56d5-80b8-8006-652e2d62e1a4"><g class="fills" id="fills-acf7de1e-56d5-80b8-8006-652e2d62e1a4"><ellipse cx="271.6" cy="214.40000000000003" rx="10.400000000000034" ry="10.400000000000034" transform="matrix(1.000000, 0.000000, 0.000000, 1.000000, 0.000000, 0.000000)" style="fill: rgb(255, 255, 255); fill-opacity: 1;"/></g></g><g id="shape-acf7de1e-56d5-80b8-8006-652e2d62e1a5"><g class="fills" id="fills-acf7de1e-56d5-80b8-8006-652e2d62e1a5"><ellipse cx="349.59999999999997" cy="230.00000000000006" rx="10.400000000000091" ry="10.400000000000034" transform="matrix(1.000000, 0.000000, 0.000000, 1.000000, 0.000000, 0.000000)" style="fill: rgb(255, 255, 255); fill-opacity: 1;"/></g></g><g id="shape-acf7de1e-56d5-80b8-8006-652e2d63225a"><g class="fills" id="fills-acf7de1e-56d5-80b8-8006-652e2d63225a"><ellipse cx="349.59999999999997" cy="188.39999999999998" rx="10.400000000000091" ry="10.399999999999977" transform="matrix(1.000000, 0.000000, 0.000000, 1.000000, 0.000000, 0.000000)" style="fill: rgb(255, 255, 255); fill-opacity: 1;"/></g></g><g id="shape-acf7de1e-56d5-80b8-8006-652e2d636d10"><g class="fills" id="fills-acf7de1e-56d5-80b8-8006-652e2d636d10"><ellipse cx="328.79999999999984" cy="209.2" rx="10.400000000000006" ry="10.400000000000034" transform="matrix(1.000000, 0.000000, 0.000000, 1.000000, 0.000000, 0.000000)" style="fill: rgb(255, 255, 255); fill-opacity: 1;"/></g></g><g id="shape-acf7de1e-56d5-80b8-8006-652e2d639afe"><g class="fills" id="fills-acf7de1e-56d5-80b8-8006-652e2d639afe"><path d="M302.8000183105469,230C285.59429931640625,230,271.5999755859375,243.9942626953125,271.5999755859375,261.1999816894531C271.5999755859375,278.40570068359375,285.59429931640625,292.4000244140625,302.8000183105469,292.4000244140625C320.0057373046875,292.4000244140625,334,278.40570068359375,334,261.1999816894531C334,243.9942626953125,320.0057373046875,230,302.8000183105469,230ZM302.8000183105469,271.5999755859375C297.06341552734375,271.5999755859375,292.4000244140625,266.93658447265625,292.4000244140625,261.1999816894531C292.4000244140625,255.46340942382812,297.06341552734375,250.80001831054688,302.8000183105469,250.80001831054688C308.5365905761719,250.80001831054688,313.1999816894531,255.46340942382812,313.1999816894531,261.1999816894531C313.1999816894531,266.93658447265625,308.5365905761719,271.5999755859375,302.8000183105469,271.5999755859375Z" style="fill: rgb(255, 255, 255); fill-opacity: 1;"/></g></g><g id="shape-acf7de1e-56d5-80b8-8006-652e2d63ece4"><g class="fills" id="fills-acf7de1e-56d5-80b8-8006-652e2d63ece4"><path d="M271.5999755859375,178C271.5999755859375,169.40133666992188,264.5987548828125,162.39999389648438,256,162.39999389648438C247.4012451171875,162.39999389648438,240.4000244140625,169.40133666992188,240.4000244140625,178C240.4000244140625,186.5987548828125,247.4012451171875,193.5999755859375,256,193.5999755859375C264.5987548828125,193.5999755859375,271.5999755859375,186.5987548828125,271.5999755859375,178Z" style="fill: rgb(255, 255, 255); fill-opacity: 1;"/></g></g></g></g></g></g></g></g></g></svg>